<mxfile host="Electron" modified="2024-04-12T11:33:09.920Z" agent="Mozilla/5.0 (Windows NT 10.0; Win64; x64) AppleWebKit/537.36 (KHTML, like Gecko) draw.io/24.1.0 Chrome/120.0.6099.109 Electron/28.1.0 Safari/537.36" etag="xwXYBL2bw9k6252mSgwt" version="24.1.0" type="device">
  <diagram name="第 1 页" id="1ottfohnxiACSjUkRRor">
    <mxGraphModel dx="834" dy="1249" grid="0" gridSize="10" guides="1" tooltips="1" connect="1" arrows="1" fold="1" page="1" pageScale="1" pageWidth="827" pageHeight="100000" math="0" shadow="0">
      <root>
        <mxCell id="0" />
        <mxCell id="1" parent="0" />
        <mxCell id="SJ5FzPogtGrrEj7BGVAz-44" style="edgeStyle=orthogonalEdgeStyle;rounded=0;orthogonalLoop=1;jettySize=auto;html=1;strokeColor=default;strokeWidth=2;align=center;verticalAlign=middle;fontFamily=Helvetica;fontSize=18;fontColor=default;labelBackgroundColor=default;endArrow=classic;" edge="1" parent="1" source="SJ5FzPogtGrrEj7BGVAz-42" target="SJ5FzPogtGrrEj7BGVAz-43">
          <mxGeometry relative="1" as="geometry" />
        </mxCell>
        <mxCell id="SJ5FzPogtGrrEj7BGVAz-45" value="输入 URL" style="edgeLabel;html=1;align=center;verticalAlign=middle;resizable=0;points=[];rounded=0;strokeColor=default;fontFamily=Helvetica;fontSize=18;fontColor=default;labelBackgroundColor=default;fillColor=default;" vertex="1" connectable="0" parent="SJ5FzPogtGrrEj7BGVAz-44">
          <mxGeometry x="-0.0968" y="1" relative="1" as="geometry">
            <mxPoint as="offset" />
          </mxGeometry>
        </mxCell>
        <mxCell id="SJ5FzPogtGrrEj7BGVAz-42" value="用户" style="rounded=1;whiteSpace=wrap;html=1;strokeColor=default;align=center;verticalAlign=middle;fontFamily=Helvetica;fontSize=18;fontColor=default;labelBackgroundColor=default;fillColor=default;" vertex="1" parent="1">
          <mxGeometry x="360" y="87" width="120" height="60" as="geometry" />
        </mxCell>
        <mxCell id="SJ5FzPogtGrrEj7BGVAz-48" style="edgeStyle=orthogonalEdgeStyle;rounded=0;orthogonalLoop=1;jettySize=auto;html=1;strokeColor=default;strokeWidth=2;align=center;verticalAlign=middle;fontFamily=Helvetica;fontSize=18;fontColor=default;labelBackgroundColor=default;endArrow=classic;" edge="1" parent="1" source="SJ5FzPogtGrrEj7BGVAz-43" target="SJ5FzPogtGrrEj7BGVAz-46">
          <mxGeometry relative="1" as="geometry">
            <Array as="points">
              <mxPoint x="279" y="253" />
              <mxPoint x="279" y="253" />
            </Array>
          </mxGeometry>
        </mxCell>
        <mxCell id="SJ5FzPogtGrrEj7BGVAz-49" value="URL" style="edgeLabel;html=1;align=center;verticalAlign=middle;resizable=0;points=[];rounded=0;strokeColor=default;fontFamily=Helvetica;fontSize=18;fontColor=default;labelBackgroundColor=default;fillColor=default;" vertex="1" connectable="0" parent="SJ5FzPogtGrrEj7BGVAz-48">
          <mxGeometry x="-0.0085" y="6" relative="1" as="geometry">
            <mxPoint as="offset" />
          </mxGeometry>
        </mxCell>
        <mxCell id="SJ5FzPogtGrrEj7BGVAz-53" style="edgeStyle=orthogonalEdgeStyle;rounded=0;orthogonalLoop=1;jettySize=auto;html=1;strokeColor=default;strokeWidth=2;align=center;verticalAlign=middle;fontFamily=Helvetica;fontSize=18;fontColor=default;labelBackgroundColor=default;endArrow=classic;" edge="1" parent="1" source="SJ5FzPogtGrrEj7BGVAz-43" target="SJ5FzPogtGrrEj7BGVAz-52">
          <mxGeometry relative="1" as="geometry" />
        </mxCell>
        <mxCell id="SJ5FzPogtGrrEj7BGVAz-56" value="IP地址" style="edgeLabel;html=1;align=center;verticalAlign=middle;resizable=0;points=[];rounded=0;strokeColor=default;fontFamily=Helvetica;fontSize=18;fontColor=default;labelBackgroundColor=default;fillColor=default;" vertex="1" connectable="0" parent="SJ5FzPogtGrrEj7BGVAz-53">
          <mxGeometry x="-0.7488" y="-4" relative="1" as="geometry">
            <mxPoint x="3" y="15" as="offset" />
          </mxGeometry>
        </mxCell>
        <mxCell id="SJ5FzPogtGrrEj7BGVAz-57" value="443端口" style="edgeLabel;html=1;align=center;verticalAlign=middle;resizable=0;points=[];rounded=0;strokeColor=default;fontFamily=Helvetica;fontSize=18;fontColor=default;labelBackgroundColor=default;fillColor=default;" vertex="1" connectable="0" parent="SJ5FzPogtGrrEj7BGVAz-53">
          <mxGeometry x="0.1873" relative="1" as="geometry">
            <mxPoint y="-30" as="offset" />
          </mxGeometry>
        </mxCell>
        <mxCell id="SJ5FzPogtGrrEj7BGVAz-58" value="建立TCP连接" style="edgeLabel;html=1;align=center;verticalAlign=middle;resizable=0;points=[];rounded=0;strokeColor=default;fontFamily=Helvetica;fontSize=18;fontColor=default;labelBackgroundColor=default;fillColor=default;" vertex="1" connectable="0" parent="SJ5FzPogtGrrEj7BGVAz-53">
          <mxGeometry x="0.4976" y="-1" relative="1" as="geometry">
            <mxPoint as="offset" />
          </mxGeometry>
        </mxCell>
        <mxCell id="SJ5FzPogtGrrEj7BGVAz-59" style="edgeStyle=orthogonalEdgeStyle;rounded=0;orthogonalLoop=1;jettySize=auto;html=1;strokeColor=default;strokeWidth=2;align=center;verticalAlign=middle;fontFamily=Helvetica;fontSize=18;fontColor=default;labelBackgroundColor=default;endArrow=classic;" edge="1" parent="1" source="SJ5FzPogtGrrEj7BGVAz-43" target="SJ5FzPogtGrrEj7BGVAz-52">
          <mxGeometry relative="1" as="geometry">
            <mxPoint x="527" y="414" as="targetPoint" />
            <Array as="points">
              <mxPoint x="528" y="270" />
            </Array>
          </mxGeometry>
        </mxCell>
        <mxCell id="SJ5FzPogtGrrEj7BGVAz-60" value="HTTP请求" style="edgeLabel;html=1;align=center;verticalAlign=middle;resizable=0;points=[];rounded=0;strokeColor=default;fontFamily=Helvetica;fontSize=18;fontColor=default;labelBackgroundColor=default;fillColor=default;" vertex="1" connectable="0" parent="SJ5FzPogtGrrEj7BGVAz-59">
          <mxGeometry x="0.1602" y="-2" relative="1" as="geometry">
            <mxPoint as="offset" />
          </mxGeometry>
        </mxCell>
        <mxCell id="SJ5FzPogtGrrEj7BGVAz-43" value="浏览器" style="rounded=1;whiteSpace=wrap;html=1;strokeColor=default;align=center;verticalAlign=middle;fontFamily=Helvetica;fontSize=18;fontColor=default;labelBackgroundColor=default;fillColor=default;" vertex="1" parent="1">
          <mxGeometry x="360" y="240" width="120" height="60" as="geometry" />
        </mxCell>
        <mxCell id="SJ5FzPogtGrrEj7BGVAz-50" style="edgeStyle=orthogonalEdgeStyle;rounded=0;orthogonalLoop=1;jettySize=auto;html=1;strokeColor=default;strokeWidth=2;align=center;verticalAlign=middle;fontFamily=Helvetica;fontSize=18;fontColor=default;labelBackgroundColor=default;endArrow=classic;" edge="1" parent="1" source="SJ5FzPogtGrrEj7BGVAz-46" target="SJ5FzPogtGrrEj7BGVAz-43">
          <mxGeometry relative="1" as="geometry">
            <Array as="points">
              <mxPoint x="320" y="279" />
              <mxPoint x="320" y="279" />
            </Array>
          </mxGeometry>
        </mxCell>
        <mxCell id="SJ5FzPogtGrrEj7BGVAz-51" value="IP地址" style="edgeLabel;html=1;align=center;verticalAlign=middle;resizable=0;points=[];rounded=0;strokeColor=default;fontFamily=Helvetica;fontSize=18;fontColor=default;labelBackgroundColor=default;fillColor=default;" vertex="1" connectable="0" parent="SJ5FzPogtGrrEj7BGVAz-50">
          <mxGeometry x="-0.0427" y="-4" relative="1" as="geometry">
            <mxPoint as="offset" />
          </mxGeometry>
        </mxCell>
        <mxCell id="SJ5FzPogtGrrEj7BGVAz-46" value="DNS 服务器" style="rounded=1;whiteSpace=wrap;html=1;strokeColor=default;align=center;verticalAlign=middle;fontFamily=Helvetica;fontSize=18;fontColor=default;labelBackgroundColor=default;fillColor=default;" vertex="1" parent="1">
          <mxGeometry x="123" y="240" width="120" height="60" as="geometry" />
        </mxCell>
        <mxCell id="SJ5FzPogtGrrEj7BGVAz-61" style="edgeStyle=orthogonalEdgeStyle;rounded=0;orthogonalLoop=1;jettySize=auto;html=1;strokeColor=default;strokeWidth=2;align=center;verticalAlign=middle;fontFamily=Helvetica;fontSize=18;fontColor=default;labelBackgroundColor=default;endArrow=classic;" edge="1" parent="1">
          <mxGeometry relative="1" as="geometry">
            <mxPoint x="480" y="258" as="targetPoint" />
            <mxPoint x="654.3800000000001" y="515" as="sourcePoint" />
            <Array as="points">
              <mxPoint x="680" y="515" />
              <mxPoint x="680" y="258" />
            </Array>
          </mxGeometry>
        </mxCell>
        <mxCell id="SJ5FzPogtGrrEj7BGVAz-62" value="HTTP 响应" style="edgeLabel;html=1;align=center;verticalAlign=middle;resizable=0;points=[];rounded=0;strokeColor=default;fontFamily=Helvetica;fontSize=18;fontColor=default;labelBackgroundColor=default;fillColor=default;" vertex="1" connectable="0" parent="SJ5FzPogtGrrEj7BGVAz-61">
          <mxGeometry x="-0.3261" y="-3" relative="1" as="geometry">
            <mxPoint as="offset" />
          </mxGeometry>
        </mxCell>
        <mxCell id="SJ5FzPogtGrrEj7BGVAz-52" value="服务器" style="rounded=1;whiteSpace=wrap;html=1;strokeColor=default;align=center;verticalAlign=middle;fontFamily=Helvetica;fontSize=18;fontColor=default;labelBackgroundColor=default;fillColor=default;" vertex="1" parent="1">
          <mxGeometry x="185.63" y="444" width="468.75" height="106" as="geometry" />
        </mxCell>
        <mxCell id="SJ5FzPogtGrrEj7BGVAz-65" value="" style="edgeStyle=orthogonalEdgeStyle;rounded=0;orthogonalLoop=1;jettySize=auto;html=1;strokeColor=default;strokeWidth=2;align=center;verticalAlign=middle;fontFamily=Helvetica;fontSize=18;fontColor=default;labelBackgroundColor=default;endArrow=classic;" edge="1" parent="1" source="SJ5FzPogtGrrEj7BGVAz-63" target="SJ5FzPogtGrrEj7BGVAz-64">
          <mxGeometry relative="1" as="geometry" />
        </mxCell>
        <mxCell id="SJ5FzPogtGrrEj7BGVAz-66" value="HTTP响应" style="edgeLabel;html=1;align=center;verticalAlign=middle;resizable=0;points=[];rounded=0;strokeColor=default;fontFamily=Helvetica;fontSize=18;fontColor=default;labelBackgroundColor=default;fillColor=default;" vertex="1" connectable="0" parent="SJ5FzPogtGrrEj7BGVAz-65">
          <mxGeometry x="-0.1071" y="2" relative="1" as="geometry">
            <mxPoint y="1" as="offset" />
          </mxGeometry>
        </mxCell>
        <mxCell id="SJ5FzPogtGrrEj7BGVAz-63" value="服务器" style="rounded=1;whiteSpace=wrap;html=1;strokeColor=default;align=center;verticalAlign=middle;fontFamily=Helvetica;fontSize=18;fontColor=default;labelBackgroundColor=default;fillColor=default;" vertex="1" parent="1">
          <mxGeometry x="44" y="813" width="218" height="103" as="geometry" />
        </mxCell>
        <mxCell id="SJ5FzPogtGrrEj7BGVAz-71" style="edgeStyle=orthogonalEdgeStyle;rounded=0;orthogonalLoop=1;jettySize=auto;html=1;strokeColor=default;strokeWidth=2;align=center;verticalAlign=middle;fontFamily=Helvetica;fontSize=18;fontColor=default;labelBackgroundColor=default;endArrow=classic;" edge="1" parent="1" source="SJ5FzPogtGrrEj7BGVAz-64" target="SJ5FzPogtGrrEj7BGVAz-69">
          <mxGeometry relative="1" as="geometry" />
        </mxCell>
        <mxCell id="SJ5FzPogtGrrEj7BGVAz-72" style="edgeStyle=orthogonalEdgeStyle;rounded=0;orthogonalLoop=1;jettySize=auto;html=1;strokeColor=default;strokeWidth=2;align=center;verticalAlign=middle;fontFamily=Helvetica;fontSize=18;fontColor=default;labelBackgroundColor=default;endArrow=classic;" edge="1" parent="1" source="SJ5FzPogtGrrEj7BGVAz-64" target="SJ5FzPogtGrrEj7BGVAz-67">
          <mxGeometry relative="1" as="geometry">
            <Array as="points">
              <mxPoint x="468" y="970" />
              <mxPoint x="265" y="970" />
            </Array>
          </mxGeometry>
        </mxCell>
        <mxCell id="SJ5FzPogtGrrEj7BGVAz-73" style="edgeStyle=orthogonalEdgeStyle;rounded=0;orthogonalLoop=1;jettySize=auto;html=1;strokeColor=default;strokeWidth=2;align=center;verticalAlign=middle;fontFamily=Helvetica;fontSize=18;fontColor=default;labelBackgroundColor=default;endArrow=classic;" edge="1" parent="1" source="SJ5FzPogtGrrEj7BGVAz-64" target="SJ5FzPogtGrrEj7BGVAz-70">
          <mxGeometry relative="1" as="geometry">
            <Array as="points">
              <mxPoint x="468" y="970" />
              <mxPoint x="671" y="970" />
            </Array>
          </mxGeometry>
        </mxCell>
        <mxCell id="SJ5FzPogtGrrEj7BGVAz-64" value="浏览器" style="rounded=1;whiteSpace=wrap;html=1;strokeColor=default;align=center;verticalAlign=middle;fontFamily=Helvetica;fontSize=18;fontColor=default;labelBackgroundColor=default;fillColor=default;" vertex="1" parent="1">
          <mxGeometry x="408" y="834.5" width="120" height="60" as="geometry" />
        </mxCell>
        <mxCell id="SJ5FzPogtGrrEj7BGVAz-75" style="edgeStyle=orthogonalEdgeStyle;rounded=0;orthogonalLoop=1;jettySize=auto;html=1;strokeColor=default;strokeWidth=2;align=center;verticalAlign=middle;fontFamily=Helvetica;fontSize=18;fontColor=default;labelBackgroundColor=default;endArrow=classic;" edge="1" parent="1" source="SJ5FzPogtGrrEj7BGVAz-67" target="SJ5FzPogtGrrEj7BGVAz-74">
          <mxGeometry relative="1" as="geometry">
            <Array as="points">
              <mxPoint x="265" y="1314" />
              <mxPoint x="468" y="1314" />
            </Array>
          </mxGeometry>
        </mxCell>
        <mxCell id="SJ5FzPogtGrrEj7BGVAz-67" value="HTML文件" style="ellipse;whiteSpace=wrap;html=1;rounded=0;strokeColor=default;align=center;verticalAlign=middle;fontFamily=Helvetica;fontSize=18;fontColor=default;labelBackgroundColor=default;fillColor=default;" vertex="1" parent="1">
          <mxGeometry x="205" y="1089" width="120" height="80" as="geometry" />
        </mxCell>
        <mxCell id="SJ5FzPogtGrrEj7BGVAz-76" style="edgeStyle=orthogonalEdgeStyle;rounded=0;orthogonalLoop=1;jettySize=auto;html=1;strokeColor=default;strokeWidth=2;align=center;verticalAlign=middle;fontFamily=Helvetica;fontSize=18;fontColor=default;labelBackgroundColor=default;endArrow=classic;" edge="1" parent="1" source="SJ5FzPogtGrrEj7BGVAz-69" target="SJ5FzPogtGrrEj7BGVAz-74">
          <mxGeometry relative="1" as="geometry" />
        </mxCell>
        <mxCell id="SJ5FzPogtGrrEj7BGVAz-69" value="DOM树" style="ellipse;whiteSpace=wrap;html=1;rounded=0;strokeColor=default;align=center;verticalAlign=middle;fontFamily=Helvetica;fontSize=18;fontColor=default;labelBackgroundColor=default;fillColor=default;" vertex="1" parent="1">
          <mxGeometry x="408" y="1089" width="120" height="80" as="geometry" />
        </mxCell>
        <mxCell id="SJ5FzPogtGrrEj7BGVAz-77" style="edgeStyle=orthogonalEdgeStyle;rounded=0;orthogonalLoop=1;jettySize=auto;html=1;strokeColor=default;strokeWidth=2;align=center;verticalAlign=middle;fontFamily=Helvetica;fontSize=18;fontColor=default;labelBackgroundColor=default;endArrow=classic;" edge="1" parent="1" source="SJ5FzPogtGrrEj7BGVAz-70" target="SJ5FzPogtGrrEj7BGVAz-74">
          <mxGeometry relative="1" as="geometry">
            <Array as="points">
              <mxPoint x="671" y="1314" />
              <mxPoint x="468" y="1314" />
            </Array>
          </mxGeometry>
        </mxCell>
        <mxCell id="SJ5FzPogtGrrEj7BGVAz-70" value="CSS、JS" style="ellipse;whiteSpace=wrap;html=1;rounded=0;strokeColor=default;align=center;verticalAlign=middle;fontFamily=Helvetica;fontSize=18;fontColor=default;labelBackgroundColor=default;fillColor=default;" vertex="1" parent="1">
          <mxGeometry x="611" y="1084" width="120" height="80" as="geometry" />
        </mxCell>
        <mxCell id="SJ5FzPogtGrrEj7BGVAz-74" value="页面" style="shape=ext;double=1;rounded=1;whiteSpace=wrap;html=1;strokeColor=default;align=center;verticalAlign=middle;fontFamily=Helvetica;fontSize=18;fontColor=default;labelBackgroundColor=default;fillColor=default;" vertex="1" parent="1">
          <mxGeometry x="408" y="1413" width="120" height="80" as="geometry" />
        </mxCell>
      </root>
    </mxGraphModel>
  </diagram>
</mxfile>
